<?xml version="1.0" standalone="no"?>
<!DOCTYPE svg PUBLIC "-//W3C//DTD SVG 20010904//EN"
 "http://www.w3.org/TR/2001/REC-SVG-20010904/DTD/svg10.dtd">
<svg version="1.0" xmlns="http://www.w3.org/2000/svg"
 width="256.000000pt" height="256.000000pt" viewBox="0 0 256.000000 256.000000"
 preserveAspectRatio="xMidYMid meet">

<g transform="translate(0.000000,256.000000) scale(0.100000,-0.100000)"
fill="#00897b" stroke="none">
<path d="M1648 2304 c-183 -44 -327 -186 -383 -378 -12 -41 -16 -84 -13 -152
l3 -94 -36 0 c-108 0 -316 52 -467 117 -183 78 -327 177 -476 326 -74 74 -101
96 -107 86 -48 -75 -72 -252 -49 -362 18 -88 73 -188 142 -258 l61 -62 -50 6
c-28 3 -78 17 -113 31 l-63 26 7 -62 c14 -119 83 -257 167 -333 45 -40 113
-81 186 -111 l56 -22 -58 -7 c-31 -4 -81 -5 -111 -2 -34 3 -54 2 -54 -5 0 -5
16 -40 35 -77 72 -136 223 -245 375 -271 l73 -12 -84 -54 c-92 -59 -199 -104
-323 -136 -61 -16 -114 -21 -218 -22 -76 -1 -138 -4 -138 -7 0 -10 175 -98
265 -133 50 -19 144 -47 210 -62 110 -26 137 -28 320 -29 152 0 222 4 290 18
510 100 905 433 1099 924 65 164 106 367 106 525 l0 83 85 78 c74 68 186 197
171 197 -3 0 -23 -7 -43 -15 -50 -19 -137 -43 -195 -54 l-47 -8 73 68 c51 48
84 89 110 138 20 38 36 72 36 75 0 4 -27 -7 -60 -24 -65 -33 -227 -90 -255
-90 -9 0 -40 18 -68 40 -131 105 -300 143 -459 104z"/>
</g>
</svg>
